<?xml version="1.0" standalone="no"?>
<!DOCTYPE svg PUBLIC "-//W3C//DTD SVG 20010904//EN"
 "http://www.w3.org/TR/2001/REC-SVG-20010904/DTD/svg10.dtd">
<svg version="1.0" xmlns="http://www.w3.org/2000/svg"
 width="512.000000pt" height="512.000000pt" viewBox="0 0 512.000000 512.000000"
 preserveAspectRatio="xMidYMid meet">
<metadata>
Created by potrace 1.11, written by Peter Selinger 2001-2013
</metadata>
<g transform="translate(0.000000,512.000000) scale(0.100000,-0.100000)"
fill="#000000" stroke="none">
<path d="M393 5106 c-184 -45 -342 -208 -382 -394 -16 -75 -16 -4229 0 -4304
41 -191 206 -357 397 -397 75 -16 4229 -16 4304 0 191 40 356 206 397 397 16
75 16 4229 0 4304 -41 191 -206 357 -397 397 -81 17 -4248 14 -4319 -3z m1642
-811 c259 -39 484 -142 648 -295 103 -96 168 -183 222 -295 57 -116 85 -217
92 -332 l6 -93 -225 0 -225 0 -5 78 c-19 274 -195 476 -483 554 -107 29 -398
32 -515 5 -227 -52 -396 -202 -441 -392 -18 -79 -14 -211 10 -277 72 -205 264
-327 746 -473 349 -106 511 -169 667 -262 311 -185 460 -418 475 -740 7 -147
-7 -245 -51 -363 -90 -242 -309 -433 -606 -528 -181 -58 -251 -67 -515 -67
-255 0 -298 5 -492 60 -128 37 -351 150 -449 229 -216 173 -334 391 -360 664
l-7 72 226 0 226 0 5 -47 c30 -251 140 -409 361 -519 110 -54 213 -81 365 -95
135 -12 303 0 422 30 161 41 304 143 366 259 91 171 78 401 -32 551 -92 125
-336 243 -746 362 -474 138 -801 331 -954 563 -139 210 -164 501 -65 756 120
311 462 546 874 599 114 14 351 12 460 -4z m2075 -600 l0 -305 235 0 235 0 0
-170 0 -170 -235 0 -235 0 0 -822 c0 -934 -2 -906 75 -983 56 -57 107 -69 243
-62 59 4 119 9 135 13 l27 6 0 -175 c0 -159 -2 -176 -17 -181 -69 -20 -204
-36 -307 -36 -201 0 -321 44 -424 155 -70 75 -117 170 -143 288 -19 86 -20
131 -19 943 l0 854 -232 2 -233 3 -3 168 -2 167 235 0 235 0 0 305 0 305 215
0 215 0 0 -305z"/>
</g>
</svg>
